
<svg xmlns="http://www.w3.org/2000/svg" width="500" height="500">
<path style="fill:#ffffff; stroke:none;" d="M0 0L0 500L500 500L500 0L0 0z"/>
<path style="fill:#f7dd8f; stroke:none;" d="M268 50L269 51L268 50z"/>
<path style="fill:#83a76f; stroke:none;" d="M269.667 50.3333L270.333 50.6667L269.667 50.3333z"/>
<path style="fill:#040404; stroke:none;" d="M256 93L264 98C263.798 93.3072 260.482 82.4812 263.773 78.6034C265.579 76.4755 269.516 76.9887 272 76.5355C278.256 75.3942 295.136 67.6877 291.839 59.0154C286.347 44.5727 263.553 50.1041 256.39 59.0146C251.833 64.6846 253.531 73.6209 249.397 78.3658C243.566 85.0564 231.645 85.4341 228.654 95.0038C226.398 102.222 231.641 109.568 229.348 117C226.889 124.968 219.109 129.966 219.184 139C219.316 154.925 240.857 161.243 249.518 147.907C258.131 134.644 256 108.32 256 93z"/>
<path style="fill:#83a76f; stroke:none;" d="M278.667 50.3333L279.333 50.6667L278.667 50.3333z"/>
<path style="fill:#f7dd8f; stroke:none;" d="M265 51L266 52L265 51z"/>
<path style="fill:#83a76f; stroke:none;" d="M266 51L267 52L266 51M282 51L283 52L282 51z"/>
<path style="fill:#f7dd8f; stroke:none;" d="M263 52L264 53L263 52z"/>
<path style="fill:#83a76f; stroke:none;" d="M284 52L285 53L284 52z"/>
<path style="fill:#f7dd8f; stroke:none;" d="M285 52L286 53L285 52z"/>
<path style="fill:#83a76f; stroke:none;" d="M262 53L263 54L262 53M286 53L287 54L286 53z"/>
<path style="fill:#f7dd8f; stroke:none;" d="M288 54L289 55L288 54M259 55L260 56L259 55z"/>
<path style="fill:#83a76f; stroke:none;" d="M289 55L290 56L289 55M258 56L259 57L258 56M290 56L291 57L290 56M257 57L258 58L257 57M291 57L292 58L291 57M256 58L257 59L256 58M292 58L293 59L292 58z"/>
<path style="fill:#f7dd8f; stroke:none;" d="M255 59L256 60L255 59M293 59L294 60L293 59z"/>
<path style="fill:#83a76f; stroke:none;" d="M293 60L294 61L293 60M254 61L255 62L254 61M292 62C284.491 72.66 275.471 76.4225 263 78L264.887 105.996L256.329 122L247 187C257.385 192.472 268.526 193.001 280 193C284.603 193 290.21 194.09 292 189C318.591 193.937 346.987 191 374 191L374 190L320 190C324.142 185.77 330.438 187 336 187C346.955 187 360.478 189.11 371 186L371 185L350 186C347.128 169.896 333.896 175.06 322 176L323 171L294 169C295.451 159.178 303.122 147.984 299.75 138C295.935 126.705 280.888 117.227 281.035 105.001C281.129 97.1094 288.431 98.8708 292.57 93.8912C298.541 86.7083 297.62 69.033 292 62z"/>
<path style="fill:#f7dd8f; stroke:none;" d="M293.333 62.6667L293.667 63.3333L293.333 62.6667z"/>
<path style="fill:#83a76f; stroke:none;" d="M253 63L254 64L253 63z"/>
<path style="fill:#c4191f; stroke:none;" d="M291 63L292 64L291 63z"/>
<path style="fill:#f7dd8f; stroke:none;" d="M294.333 64.6667L294.667 65.3333L294.333 64.6667z"/>
<path style="fill:#83a76f; stroke:none;" d="M252 65L253 66L252 65z"/>
<path style="fill:#f7dd8f; stroke:none;" d="M251 67L252 68L251 67M295 67L295 70L296 70L295 67z"/>
<path style="fill:#83a76f; stroke:none;" d="M251 68L252 69L251 68z"/>
<path style="fill:#f7dd8f; stroke:none;" d="M250 72L251 73L250 72z"/>
<path style="fill:#c4191f; stroke:none;" d="M282 72L283 73L282 72z"/>
<path style="fill:#83a76f; stroke:none;" d="M250 73L250 77L251 77L250 73z"/>
<path style="fill:#f7dd8f; stroke:none;" d="M296 73L296 85L297 85L296 73z"/>
<path style="fill:#c4191f; stroke:none;" d="M276 75L277 76L276 75M272.667 76.3333L273.333 76.6667L272.667 76.3333z"/>
<path style="fill:#f7dd8f; stroke:none;" d="M250 77L251 78L250 77z"/>
<path style="fill:#c4191f; stroke:none;" d="M263 77L263 78L267 78L263 77z"/>
<path style="fill:#83a76f; stroke:none;" d="M250 78L251 79L250 78z"/>
<path style="fill:#c4191f; stroke:none;" d="M262 78L262 81L263 81L262 78z"/>
<path style="fill:#83a76f; stroke:none;" d="M248 79L249 80L248 79M246 80L247 81L246 80z"/>
<path style="fill:#f7dd8f; stroke:none;" d="M244 81L245 82L244 81z"/>
<path style="fill:#83a76f; stroke:none;" d="M243 82L244 83L243 82M241 83L242 84L241 83M239 84L240 85L239 84z"/>
<path style="fill:#f7dd8f; stroke:none;" d="M237 85L238 86L237 85z"/>
<path style="fill:#83a76f; stroke:none;" d="M236 86L237 87L236 86z"/>
<path style="fill:#c4191f; stroke:none;" d="M280 87C284.5 90.3486 288.988 90.1117 294 88C289.924 85.2155 284.589 85.6436 280 87z"/>
<path style="fill:#f7dd8f; stroke:none;" d="M234 87L235 88L234 87M295 87L295 90L296 90L295 87z"/>
<path style="fill:#83a76f; stroke:none;" d="M233 88L234 89L233 88z"/>
<path style="fill:#c4191f; stroke:none;" d="M263 89L263 93L264 93L263 89z"/>
<path style="fill:#f7dd8f; stroke:none;" d="M294 91L295 92L294 91z"/>
<path style="fill:#83a76f; stroke:none;" d="M229 92L230 93L229 92M256 93L256 102L257 102L258 93L256 93z"/>
<path style="fill:#f7dd8f; stroke:none;" d="M293 93L294 94L293 93z"/>
<path style="fill:#83a76f; stroke:none;" d="M228 94L229 95L228 94M258 94L259 95L258 94z"/>
<path style="fill:#f7dd8f; stroke:none;" d="M292 94L293 95L292 94z"/>
<path style="fill:#83a76f; stroke:none;" d="M259 95L260 96L259 95z"/>
<path style="fill:#f7dd8f; stroke:none;" d="M291 95L292 96L291 95M260 96L261 97L260 96M264 96L265 97L264 96M290 96L291 97L290 96z"/>
<path style="fill:#83a76f; stroke:none;" d="M262 97L263 98L262 97z"/>
<path style="fill:#f7dd8f; stroke:none;" d="M288.667 97.3333L289.333 97.6667L288.667 97.3333M263 98L264 99L263 98M282 98L282 99L287 99L282 98M264 99L264 110L265 110L264 99M281 99L281 111L282 111L281 99z"/>
<path style="fill:#83a76f; stroke:none;" d="M228.333 102.667L228.667 103.333L228.333 102.667z"/>
<path style="fill:#f7dd8f; stroke:none;" d="M256 102L256 105L257 105L256 102M228 104L229 105L228 104z"/>
<path style="fill:#83a76f; stroke:none;" d="M229.333 106.667L229.667 107.333L229.333 106.667z"/>
<path style="fill:#f7dd8f; stroke:none;" d="M229 108L230 109L229 108z"/>
<path style="fill:#83a76f; stroke:none;" d="M255 110L255 115L256 115L255 110z"/>
<path style="fill:#f7dd8f; stroke:none;" d="M263 111L264 112L263 111M282 112L283 113L282 112M283 113L284 114L283 113M284 114L285 115L284 114M255.333 115.667L255.667 116.333L255.333 115.667M285 115L286 116L285 115z"/>
<path style="fill:#83a76f; stroke:none;" d="M229 117L230 118L229 117z"/>
<path style="fill:#f7dd8f; stroke:none;" d="M257 117L258 118L257 117M228 119L229 120L228 119z"/>
<path style="fill:#040404; stroke:none;" d="M384 119C380.829 135.351 377.466 151.668 374.2 168C373.253 172.735 373.122 183.113 368.697 185.972C361.382 190.699 341.652 187 333 187C328.429 187 322.74 185.773 320 190L374 190L386 119L384 119z"/>
<path style="fill:#83a76f; stroke:none;" d="M386 119L386 122L387 122L386 119z"/>
<path style="fill:#f7dd8f; stroke:none;" d="M256 120L257 121L256 120M288 120L289 121L288 120z"/>
<path style="fill:#83a76f; stroke:none;" d="M383.333 120.667L383.667 121.333L383.333 120.667M227 121L228 122L227 121M254 121L254 126L255 126L254 121z"/>
<path style="fill:#f7dd8f; stroke:none;" d="M226 122L227 123L226 122M386 122L387 123L386 122M290 123L291 124L290 123M382 124L383 125L382 124z"/>
<path style="fill:#83a76f; stroke:none;" d="M224 125L225 126L224 125M382.333 125.667L382.667 126.333L382.333 125.667M385 125L385 128L386 128L385 125z"/>
<path style="fill:#f7dd8f; stroke:none;" d="M223 126L224 127L223 126M254.333 126.667L254.667 127.333L254.333 126.667M293 127L294 128L293 127z"/>
<path style="fill:#83a76f; stroke:none;" d="M222 128L223 129L222 128M221 129L222 130L221 129z"/>
<path style="fill:#f7dd8f; stroke:none;" d="M381 129L382 130L381 129M295 130L296 131L295 130z"/>
<path style="fill:#83a76f; stroke:none;" d="M381.333 130.667L381.667 131.333L381.333 130.667M220 131L221 132L220 131M384.333 131.667L384.667 132.333L384.333 131.667M253 133L253 137L254 137L253 133z"/>
<path style="fill:#f7dd8f; stroke:none;" d="M297 133L298 134L297 133M384 133L385 134L384 133z"/>
<path style="fill:#83a76f; stroke:none;" d="M219.333 134.667L219.667 135.333L219.333 134.667z"/>
<path style="fill:#f7dd8f; stroke:none;" d="M380 134L381 135L380 134M255 135L256 136L255 135z"/>
<path style="fill:#83a76f; stroke:none;" d="M380.333 135.667L380.667 136.333L380.333 135.667M383.333 136.667L383.667 137.333L383.333 136.667z"/>
<path style="fill:#f7dd8f; stroke:none;" d="M253 137L254 138L253 137M383 138L384 139L383 138M379 139L380 140L379 139z"/>
<path style="fill:#83a76f; stroke:none;" d="M252.333 140.667L252.667 141.333L252.333 140.667z"/>
<path style="fill:#f7dd8f; stroke:none;" d="M300 140L301 141L300 140z"/>
<path style="fill:#83a76f; stroke:none;" d="M379.333 140.667L379.667 141.333L379.333 140.667z"/>
<path style="fill:#f7dd8f; stroke:none;" d="M254 141L255 142L254 141z"/>
<path style="fill:#83a76f; stroke:none;" d="M219.333 142.667L219.667 143.333L219.333 142.667z"/>
<path style="fill:#f7dd8f; stroke:none;" d="M252 142L253 143L252 142z"/>
<path style="fill:#83a76f; stroke:none;" d="M382.333 142.667L382.667 143.333L382.333 142.667M251 144L252 145L251 144z"/>
<path style="fill:#f7dd8f; stroke:none;" d="M378 144L379 145L378 144M382 144L383 145L382 144z"/>
<path style="fill:#83a76f; stroke:none;" d="M220 145L221 146L220 145z"/>
<path style="fill:#f7dd8f; stroke:none;" d="M300 145L301 146L300 145z"/>
<path style="fill:#83a76f; stroke:none;" d="M378.333 145.667L378.667 146.333L378.333 145.667z"/>
<path style="fill:#f7dd8f; stroke:none;" d="M220 146L221 147L220 146z"/>
<path style="fill:#83a76f; stroke:none;" d="M250 146L251 147L250 146M221 147L222 148L221 147z"/>
<path style="fill:#f7dd8f; stroke:none;" d="M250 147L251 148L250 147M253.333 147.667L253.667 148.333L253.333 147.667z"/>
<path style="fill:#83a76f; stroke:none;" d="M381.333 147.667L381.667 148.333L381.333 147.667M249 148L250 149L249 148z"/>
<path style="fill:#f7dd8f; stroke:none;" d="M222 149L223 150L222 149z"/>
<path style="fill:#83a76f; stroke:none;" d="M248 149L249 150L248 149z"/>
<path style="fill:#f7dd8f; stroke:none;" d="M299 149L300 150L299 149M377 149L378 150L377 149M381 149L382 150L381 149z"/>
<path style="fill:#83a76f; stroke:none;" d="M223 150L224 151L223 150M377.333 150.667L377.667 151.333L377.333 150.667M224 151L225 152L224 151M246 151L247 152L246 151M225 152L226 153L225 152M245 152L246 153L245 152z"/>
<path style="fill:#f7dd8f; stroke:none;" d="M298 152L299 153L298 152z"/>
<path style="fill:#83a76f; stroke:none;" d="M380 152L380 155L381 155L380 152M227 153L228 154L227 153M243 153L244 154L243 153z"/>
<path style="fill:#f7dd8f; stroke:none;" d="M252.333 153.667L252.667 154.333L252.333 153.667M228 154L229 155L228 154z"/>
<path style="fill:#83a76f; stroke:none;" d="M229 154L230 155L229 154M241 154L242 155L241 154z"/>
<path style="fill:#f7dd8f; stroke:none;" d="M376 154L377 155L376 154M231 155L232 156L231 155z"/>
<path style="fill:#83a76f; stroke:none;" d="M232 155L232 156L235 156L232 155M236.667 155.333L237.333 155.667L236.667 155.333z"/>
<path style="fill:#f7dd8f; stroke:none;" d="M238 155L239 156L238 155z"/>
<path style="fill:#83a76f; stroke:none;" d="M376.333 155.667L376.667 156.333L376.333 155.667z"/>
<path style="fill:#f7dd8f; stroke:none;" d="M380 155L381 156L380 155z"/>
<path style="fill:#83a76f; stroke:none;" d="M379.333 158.667L379.667 159.333L379.333 158.667z"/>
<path style="fill:#f7dd8f; stroke:none;" d="M251.333 159.667L251.667 160.333L251.333 159.667M296 159L297 160L296 159M375 159L376 160L375 159z"/>
<path style="fill:#83a76f; stroke:none;" d="M375.333 160.667L375.667 161.333L375.333 160.667z"/>
<path style="fill:#f7dd8f; stroke:none;" d="M379 160L380 161L379 160M295 162L296 163L295 162z"/>
<path style="fill:#83a76f; stroke:none;" d="M378 163L378 166L379 166L378 163z"/>
<path style="fill:#f7dd8f; stroke:none;" d="M374 164L375 165L374 164M250.333 165.667L250.667 166.333L250.333 165.667M294 165L295 166L294 165z"/>
<path style="fill:#83a76f; stroke:none;" d="M374.333 165.667L374.667 166.333L374.333 165.667z"/>
<path style="fill:#f7dd8f; stroke:none;" d="M378 166L379 167L378 166M302 169L302 170L307 170L302 169M373 169L374 170L373 169z"/>
<path style="fill:#83a76f; stroke:none;" d="M377.333 169.667L377.667 170.333L377.333 169.667z"/>
<path style="fill:#f7dd8f; stroke:none;" d="M315 170L315 171L320 171L315 170z"/>
<path style="fill:#83a76f; stroke:none;" d="M373.333 170.667L373.667 171.333L373.333 170.667z"/>
<path style="fill:#f7dd8f; stroke:none;" d="M249.333 171.667L249.667 172.333L249.333 171.667M377 171L378 172L377 171M322 173C322.654 176.054 324.007 175.936 327 176L327 175L322 173M335 173L335 174L343 174L335 173M329 174L329 175L333 175L329 174M343.667 174.333L344.333 174.667L343.667 174.333M372 174L373 175L372 174z"/>
<path style="fill:#83a76f; stroke:none;" d="M376 174L376 177L377 177L376 174z"/>
<path style="fill:#f7dd8f; stroke:none;" d="M345 175L346 176L345 175z"/>
<path style="fill:#83a76f; stroke:none;" d="M372.333 175.667L372.667 176.333L372.333 175.667z"/>
<path style="fill:#f7dd8f; stroke:none;" d="M346 176L347 177L346 176M248.333 177.667L248.667 178.333L248.333 177.667M347.333 177.667L347.667 178.333L347.333 177.667M376 177L377 178L376 177M348.333 179.667L348.667 180.333L348.333 179.667M371 179L372 180L371 179z"/>
<path style="fill:#83a76f; stroke:none;" d="M371.333 180.667L371.667 181.333L371.333 180.667M375.333 180.667L375.667 181.333L375.333 180.667z"/>
<path style="fill:#f7dd8f; stroke:none;" d="M349.333 181.667L349.667 182.333L349.333 181.667M375 182L376 183L375 182M339 183L339 184L344 185L344 184L339 183M350 183L350 186L351 186L350 183M247 184L248 185L247 184M336.667 184.333L337.333 184.667L336.667 184.333z"/>
<path style="fill:#ffffff; stroke:none;" d="M335 185L335 186L345 186L335 185z"/>
<path style="fill:#f7dd8f; stroke:none;" d="M370 184L371 185L370 184z"/>
<path style="fill:#ffffff; stroke:none;" d="M321 185L322 186L321 185z"/>
<path style="fill:#f7dd8f; stroke:none;" d="M322 185L322 186L326 186L322 185M332 185L332 186L335 186L332 185M345 185L346 186L345 185z"/>
<path style="fill:#83a76f; stroke:none;" d="M374 185L374 188L375 188L374 185z"/>
<path style="fill:#f7dd8f; stroke:none;" d="M247 187C245.96 194.723 243.132 202.083 244.301 210C246.678 226.095 260.941 230.956 275 232.086C290.586 233.338 306.573 234.567 322 236.969C328.822 238.032 334.189 237.784 339.996 242.39C352.227 252.094 350.671 267.995 351.015 282C351.366 296.344 353 310.614 353 325L369 324L369 329L370 329L370 325L389 324L389 329L390 329L390 323L401 322C400.314 313.314 397.347 304.704 397.129 296C396.827 283.963 399.023 271.005 400.17 259C401.585 244.192 406.774 224.26 401.07 210C398.52 203.626 394.04 198.115 388 194.799C383.808 192.499 377.608 192.07 375 188L374 188L374 191L292 189C289.186 193.817 284.031 193 279 193C267.498 193.001 257.747 191.146 247 187M211 202L211 203L214 203L211 202z"/>
<path style="fill:#83a76f; stroke:none;" d="M134 249L189 222L172 289L173 289C181.206 273.582 191.066 258.891 200.189 244C202.015 241.02 206.725 229.875 211.574 232.176C214.653 233.636 214.726 239.159 215.05 242C216.064 250.897 216.923 260.299 219 269L220 269L227.671 244.001L232.961 237.485L242.576 249L266 286L267 286C263.978 269.721 269.068 247.371 262.397 232.213C260.703 228.362 255.1 226.688 252.174 223.815C246.241 217.989 244.067 211.105 244 203C222.686 202.824 200.662 200.634 180.09 208.481C174.676 210.546 170.304 215.86 166 219.576C155.558 228.593 142.056 237.799 134 249z"/>
<path style="fill:#f7dd8f; stroke:none;" d="M236 202L236 203L240 203L236 202M202.667 203.333L203.333 203.667L202.667 203.333M196 204L197 205L196 204M191 205L192 206L191 205M187 206L188 207L187 206M183 207L184 208L183 207M179 208L180 209L179 208M176 209L177 210L176 209M174 210L175 211L174 210z"/>
<path style="fill:#c4191f; stroke:none;" d="M366 325L353 325C353 311.969 351.608 298.995 351.039 286C350.759 279.591 351.989 272.878 348.811 267.001C344.114 258.316 333.565 255.643 325 252C304.545 243.301 285.386 232.767 263 231C263.011 248.181 263.028 269.317 267 286L266 286L242.576 248L232.961 236.867L227.334 244.001L220 269L219 269C217.29 259.793 216.111 250.308 215.05 241C214.737 238.257 214.724 232.884 211.574 231.662C206.1 229.539 201.67 240.62 199.576 244C190.774 258.205 178.747 273.304 173 289L172 289L189 222C170.649 227.286 150.498 239.37 134 249L177 210C98.4845 228.173 60.6438 322.428 103.865 389C154.011 466.238 278.546 469.165 337.13 401C356.653 378.285 362.505 353.686 366 325z"/>
<path style="fill:#f7dd8f; stroke:none;" d="M171 211L172 212L171 211M168 212L169 213L168 212M165 213L166 214L165 213z"/>
<path style="fill:#83a76f; stroke:none;" d="M166 213L167 214L166 213z"/>
<path style="fill:#f7dd8f; stroke:none;" d="M163 214L164 215L163 214M161 215L162 216L161 215M159 216L160 217L159 216z"/>
<path style="fill:#83a76f; stroke:none;" d="M157 217L158 218L157 217M155 218L156 219L155 218M153 219L154 220L153 219z"/>
<path style="fill:#f7dd8f; stroke:none;" d="M151 220L152 221L151 220M149 221L150 222L149 221M147 222L148 223L147 222M145 223L146 224L145 223z"/>
<path style="fill:#83a76f; stroke:none;" d="M144 224L145 225L144 224z"/>
<path style="fill:#f7dd8f; stroke:none;" d="M142 225L143 226L142 225z"/>
<path style="fill:#83a76f; stroke:none;" d="M141 226L142 227L141 226z"/>
<path style="fill:#f7dd8f; stroke:none;" d="M139 227L140 228L139 227z"/>
<path style="fill:#83a76f; stroke:none;" d="M138 228L139 229L138 228z"/>
<path style="fill:#f7dd8f; stroke:none;" d="M136 229L137 230L136 229M135 230L136 231L135 230z"/>
<path style="fill:#83a76f; stroke:none;" d="M267.667 231.333L268.333 231.667L267.667 231.333z"/>
<path style="fill:#f7dd8f; stroke:none;" d="M132 232L133 233L132 232z"/>
<path style="fill:#83a76f; stroke:none;" d="M277.667 232.333L278.333 232.667L277.667 232.333z"/>
<path style="fill:#f7dd8f; stroke:none;" d="M131 233L132 234L131 233z"/>
<path style="fill:#83a76f; stroke:none;" d="M282 233L282 234L345 261C339.896 252.839 331.775 241.844 323 237.457C312.976 232.445 293.219 233.232 282 233M130 234L131 235L130 234z"/>
<path style="fill:#ffffff; stroke:none;" d="M323 236L324 237L323 236z"/>
<path style="fill:#f7dd8f; stroke:none;" d="M126 237L127 238L126 237z"/>
<path style="fill:#ffffff; stroke:none;" d="M324 237L350 269C356.372 252.675 338.916 237.125 324 237z"/>
<path style="fill:#f7dd8f; stroke:none;" d="M125 238L126 239L125 238z"/>
<path style="fill:#83a76f; stroke:none;" d="M124 239L125 240L124 239M123 240L124 241L123 240M117 246L118 247L117 246M116 247L117 248L116 247M115 248L116 249L115 248M114 249L115 250L114 249z"/>
<path style="fill:#f7dd8f; stroke:none;" d="M113 250L114 251L113 250M112 251L113 252L112 251M337 251L338 252L337 251M111 252L112 253L111 252M338 252L339 253L338 252M339 253L340 254L339 253z"/>
<path style="fill:#83a76f; stroke:none;" d="M109 255L110 256L109 255z"/>
<path style="fill:#f7dd8f; stroke:none;" d="M108 256L109 257L108 256M342 257L343 258L342 257z"/>
<path style="fill:#83a76f; stroke:none;" d="M106 259L107 260L106 259z"/>
<path style="fill:#f7dd8f; stroke:none;" d="M105 260L106 261L105 260M104 261L105 262L104 261M345 261L346 262L345 261M103 263L104 264L103 263z"/>
<path style="fill:#83a76f; stroke:none;" d="M346 263L347 264L346 263z"/>
<path style="fill:#f7dd8f; stroke:none;" d="M347 264L348 265L347 264M101 266L102 267L101 266M348 266L349 267L348 266M349 267L350 268L349 267z"/>
<path style="fill:#83a76f; stroke:none;" d="M100 268L101 269L100 268z"/>
<path style="fill:#f7dd8f; stroke:none;" d="M99 269L100 270L99 269z"/>
<path style="fill:#83a76f; stroke:none;" d="M350 270L351 271L350 270z"/>
<path style="fill:#f7dd8f; stroke:none;" d="M98 271L99 272L98 271M97 273L98 274L97 273M96 275L97 276L96 275M95 277L96 278L95 277M94 279L95 280L94 279M93 281L94 282L93 281z"/>
<path style="fill:#83a76f; stroke:none;" d="M93 282L94 283L93 282z"/>
<path style="fill:#f7dd8f; stroke:none;" d="M92 284L93 285L92 284M91 286L92 287L91 286z"/>
<path style="fill:#83a76f; stroke:none;" d="M351 287L351 291L352 291L351 287z"/>
<path style="fill:#f7dd8f; stroke:none;" d="M90 289L91 290L90 289M89 292L90 293L89 292M88 295L89 296L88 295z"/>
<path style="fill:#83a76f; stroke:none;" d="M88 296L89 297L88 296z"/>
<path style="fill:#f7dd8f; stroke:none;" d="M87 299L88 300L87 299z"/>
<path style="fill:#83a76f; stroke:none;" d="M87 300L88 301L87 300z"/>
<path style="fill:#f7dd8f; stroke:none;" d="M86 303L87 304L86 303z"/>
<path style="fill:#83a76f; stroke:none;" d="M86 304L87 305L86 304z"/>
<path style="fill:#f7dd8f; stroke:none;" d="M85.3333 308.667L85.6667 309.333L85.3333 308.667z"/>
<path style="fill:#83a76f; stroke:none;" d="M352 308L352 312L353 312L352 308M85 310L86 311L85 310z"/>
<path style="fill:#f7dd8f; stroke:none;" d="M84 317L84 332L85 332L84 317z"/>
<path style="fill:#ffffff; stroke:none;" d="M366 324L366 329L369 329L369 324L366 324z"/>
<path style="fill:#83a76f; stroke:none;" d="M370 325L370 329C360.447 329.744 363.681 346.806 363.961 354C364.067 356.695 363.202 360.99 365.028 363.258C366.618 365.233 369.754 364.945 372 365L373 356C376.563 358 378.341 361.93 382.015 363.821C388.729 367.276 408.267 368.062 415 365L415 364C409.586 358.587 401.782 353.505 397.742 346.999C393.611 340.346 399.73 329.819 389 329L389 324L370 325M94 325L95 326L94 325z"/>
<path style="fill:#f7dd8f; stroke:none;" d="M95.0895 326.176C91.7913 326.649 91.4458 332.364 95.0895 332.364C99.2428 332.364 99.3453 325.565 95.0895 326.176z"/>
<path style="fill:#83a76f; stroke:none;" d="M96 325L97 326L96 325M350 325L351 326L350 325z"/>
<path style="fill:#f7dd8f; stroke:none;" d="M351.09 326.176C347.791 326.649 347.446 332.364 351.09 332.364C355.243 332.364 355.345 325.565 351.09 326.176z"/>
<path style="fill:#83a76f; stroke:none;" d="M352 325L353 326L352 325M348 326L349 327L348 326M91.3333 328.667L91.6667 329.333L91.3333 328.667M347.333 328.667L347.667 329.333L347.333 328.667z"/>
<path style="fill:#f7dd8f; stroke:none;" d="M119.303 330.137C116.136 331.917 118.172 337.538 121.701 335.825C125.234 334.11 123.079 328.015 119.303 330.137z"/>
<path style="fill:#83a76f; stroke:none;" d="M122 329L123 330L122 329z"/>
<path style="fill:#f7dd8f; stroke:none;" d="M213 329L225 355L237 329L213 329z"/>
<path style="fill:#83a76f; stroke:none;" d="M237 329L238 330L237 329z"/>
<path style="fill:#f7dd8f; stroke:none;" d="M324.444 330.086C320.917 332.212 324.052 337.875 327.693 335.863C331.413 333.807 328.094 327.885 324.444 330.086M394 329L395 330L394 329z"/>
<path style="fill:#83a76f; stroke:none;" d="M117 330L118 331L117 330z"/>
<path style="fill:#f7dd8f; stroke:none;" d="M395 330L396 331L395 330z"/>
<path style="fill:#83a76f; stroke:none;" d="M98 331L99 332L98 331M236 331L237 332L236 331M322 331L323 332L322 331M354 331L355 332L354 331M97 332L98 333L97 332M124.333 332.667L124.667 333.333L124.333 332.667M353 332L354 333L353 332M143 333L142 335L143 333z"/>
<path style="fill:#f7dd8f; stroke:none;" d="M144.318 334.086C140.659 336.251 144.173 341.343 147.654 338.954C150.841 336.766 147.514 332.194 144.318 334.086z"/>
<path style="fill:#83a76f; stroke:none;" d="M235 333L236 334L235 333M298 333L297 335L298 333z"/>
<path style="fill:#f7dd8f; stroke:none;" d="M299.329 334.086C295.637 336.231 299.154 341.304 302.678 338.954C306.035 336.715 302.596 332.187 299.329 334.086z"/>
<path style="fill:#83a76f; stroke:none;" d="M322 334L323 335L322 334M123 335L124 336L123 335M149 335L150 336L149 335M170 336L171 337L170 336z"/>
<path style="fill:#f7dd8f; stroke:none;" d="M171 337.006C166.838 337.078 166.801 343.365 171 343.364C175.189 343.364 175.195 336.934 171 337.006z"/>
<path style="fill:#83a76f; stroke:none;" d="M274 336L275 337L274 336z"/>
<path style="fill:#f7dd8f; stroke:none;" d="M275.09 337.176C271.299 337.722 272.362 343.364 275.91 343.364C279.92 343.364 279.003 336.612 275.09 337.176z"/>
<path style="fill:#83a76f; stroke:none;" d="M276 336L277 337L276 336M324 336L325 337L324 336M142 338L143 339L142 338M167 338L168 339L167 338M174 338L175 339L174 338M297 338L298 339L297 338M85.3333 339.667L85.6667 340.333L85.3333 339.667M279.333 339.667L279.667 340.333L279.333 339.667M303 339L304 340L303 339M145.667 340.333L146.333 340.667L145.667 340.333M194 340L195 341L194 340z"/>
<path style="fill:#f7dd8f; stroke:none;" d="M195.224 340.89C191.433 342.031 193.055 348.11 196.906 347.168C201.035 346.158 199.335 339.654 195.224 340.89z"/>
<path style="fill:#83a76f; stroke:none;" d="M248 340L247 342L248 340z"/>
<path style="fill:#f7dd8f; stroke:none;" d="M249.303 341.176C246.023 342.811 248.231 348.552 251.697 346.824C254.977 345.189 252.769 339.448 249.303 341.176z"/>
<path style="fill:#83a76f; stroke:none;" d="M252 340L253 341L252 340M300.667 340.333L301.333 340.667L300.667 340.333z"/>
<path style="fill:#f7dd8f; stroke:none;" d="M85.3333 341.667L85.6667 342.333L85.3333 341.667z"/>
<path style="fill:#83a76f; stroke:none;" d="M218 341L219 342L218 341M253 341L254 342L253 341M192 342L193 343L192 342M272 342L273 343L272 342M219 343L220 344L219 343M246.333 343.667L246.667 344.333L246.333 343.667M273 343L274 344L273 343M192 344L193 345L192 344M220 345L221 346L220 345z"/>
<path style="fill:#f7dd8f; stroke:none;" d="M396 345L397 346L396 345z"/>
<path style="fill:#83a76f; stroke:none;" d="M86 346L87 347L86 346M229 346L230 347L229 346M247 346L248 347L247 346z"/>
<path style="fill:#f7dd8f; stroke:none;" d="M86.3333 347.667L86.6667 348.333L86.3333 347.667z"/>
<path style="fill:#83a76f; stroke:none;" d="M194 347L195 348L194 347z"/>
<path style="fill:#f7dd8f; stroke:none;" d="M397 347L398 348L397 347z"/>
<path style="fill:#83a76f; stroke:none;" d="M228 348L229 349L228 348z"/>
<path style="fill:#f7dd8f; stroke:none;" d="M363 349L363 364L364 364L363 349z"/>
<path style="fill:#83a76f; stroke:none;" d="M227 350L228 351L227 350z"/>
<path style="fill:#f7dd8f; stroke:none;" d="M400 350L401 351L400 350z"/>
<path style="fill:#83a76f; stroke:none;" d="M87 351L88 352L87 351z"/>
<path style="fill:#f7dd8f; stroke:none;" d="M401 351L402 352L401 351M87 352L88 353L87 352z"/>
<path style="fill:#83a76f; stroke:none;" d="M362 352L363 353L362 352z"/>
<path style="fill:#f7dd8f; stroke:none;" d="M402 352L403 353L402 352M403 353L404 354L403 353z"/>
<path style="fill:#83a76f; stroke:none;" d="M88 355L89 356L88 355z"/>
<path style="fill:#f7dd8f; stroke:none;" d="M88 356L89 357L88 356z"/>
<path style="fill:#83a76f; stroke:none;" d="M361 356L362 357L361 356z"/>
<path style="fill:#f7dd8f; stroke:none;" d="M373 356L374 357L373 356M375 356L376 357L375 356M361 357L362 358L361 357z"/>
<path style="fill:#83a76f; stroke:none;" d="M89 358L90 359L89 358z"/>
<path style="fill:#f7dd8f; stroke:none;" d="M89 359L90 360L89 359z"/>
<path style="fill:#83a76f; stroke:none;" d="M360 359L361 360L360 359z"/>
<path style="fill:#f7dd8f; stroke:none;" d="M360 360L361 361L360 360M372.333 360.667L372.667 361.333L372.333 360.667M411 360L412 361L411 360z"/>
<path style="fill:#83a76f; stroke:none;" d="M90 361L91 362L90 361z"/>
<path style="fill:#f7dd8f; stroke:none;" d="M378 361L379 362L378 361M412 361L413 362L412 361M90 362L91 363L90 362z"/>
<path style="fill:#83a76f; stroke:none;" d="M359 362L360 363L359 362z"/>
<path style="fill:#f7dd8f; stroke:none;" d="M379 362L380 363L379 362M413 362L414 363L413 362M359 363L360 364L359 363M380 363L381 364L380 363M414 363L415 364L414 363z"/>
<path style="fill:#83a76f; stroke:none;" d="M91 364L92 365L91 364z"/>
<path style="fill:#f7dd8f; stroke:none;" d="M364.667 364.333L365.333 364.667L364.667 364.333M382 364L383 365L382 364M91 365L92 366L91 365z"/>
<path style="fill:#83a76f; stroke:none;" d="M358 365L359 366L358 365z"/>
<path style="fill:#f7dd8f; stroke:none;" d="M370.667 365.333L371.333 365.667L370.667 365.333M389 365L389 366L395 366L389 365M414 365L415 366L414 365M405 366L405 367L411 367L405 366M413 366L414 367L413 366M92 367L93 368L92 367z"/>
<path style="fill:#83a76f; stroke:none;" d="M357 367L358 368L357 367z"/>
<path style="fill:#f7dd8f; stroke:none;" d="M357 368L358 369L357 368z"/>
<path style="fill:#83a76f; stroke:none;" d="M93 369L94 370L93 369z"/>
<path style="fill:#f7dd8f; stroke:none;" d="M93 370L94 371L93 370M356 370L357 371L356 370M94 372L95 373L94 372z"/>
<path style="fill:#83a76f; stroke:none;" d="M355 372L356 373L355 372z"/>
<path style="fill:#f7dd8f; stroke:none;" d="M95 374L96 375L95 374z"/>
<path style="fill:#83a76f; stroke:none;" d="M354 374L355 375L354 374z"/>
<path style="fill:#f7dd8f; stroke:none;" d="M96 376L97 377L96 376z"/>
<path style="fill:#83a76f; stroke:none;" d="M353 376L354 377L353 376z"/>
<path style="fill:#f7dd8f; stroke:none;" d="M97 378L98 379L97 378z"/>
<path style="fill:#83a76f; stroke:none;" d="M352 378L353 379L352 378z"/>
<path style="fill:#f7dd8f; stroke:none;" d="M98 380L99 381L98 380z"/>
<path style="fill:#83a76f; stroke:none;" d="M351 380L352 381L351 380M99 381L100 382L99 381z"/>
<path style="fill:#f7dd8f; stroke:none;" d="M350 382L351 383L350 382z"/>
<path style="fill:#83a76f; stroke:none;" d="M100 383L101 384L100 383z"/>
<path style="fill:#f7dd8f; stroke:none;" d="M101 385L102 386L101 385z"/>
<path style="fill:#83a76f; stroke:none;" d="M348 385L349 386L348 385M102 386L103 387L102 386z"/>
<path style="fill:#f7dd8f; stroke:none;" d="M347 387L348 388L347 387M103 388L104 389L103 388z"/>
<path style="fill:#83a76f; stroke:none;" d="M346 388L347 389L346 388z"/>
<path style="fill:#f7dd8f; stroke:none;" d="M345 390L346 391L345 390M105 391L106 392L105 391z"/>
<path style="fill:#83a76f; stroke:none;" d="M344 391L345 392L344 391M106 392L107 393L106 392z"/>
<path style="fill:#f7dd8f; stroke:none;" d="M107 394L108 395L107 394M342 394L343 395L342 394M108 395L109 396L108 395z"/>
<path style="fill:#83a76f; stroke:none;" d="M341 395L342 396L341 395M109 396L110 397L109 396z"/>
<path style="fill:#f7dd8f; stroke:none;" d="M339 398L340 399L339 398M111 399L112 400L111 399M338 399L339 400L338 399M112 400L113 401L112 400M337 400L338 401L337 400M113 401L114 402L113 401z"/>
<path style="fill:#83a76f; stroke:none;" d="M336 401L337 402L336 401M114 402L115 403L114 402M335 402L336 403L335 402M115 403L116 404L115 403M123 411L124 412L123 411M124 412L125 413L124 412M325 412L326 413L325 412M125 413L126 414L125 413M324 413L325 414L324 413z"/>
<path style="fill:#f7dd8f; stroke:none;" d="M126 414L127 415L126 414z"/>
<path style="fill:#83a76f; stroke:none;" d="M323 414L324 415L323 414z"/>
<path style="fill:#f7dd8f; stroke:none;" d="M127 415L128 416L127 415M322 415L323 416L322 415M128 416L129 417L128 416M321 416L322 417L321 416z"/>
<path style="fill:#83a76f; stroke:none;" d="M131 418L132 419L131 418M318 418L319 419L318 418z"/>
<path style="fill:#f7dd8f; stroke:none;" d="M132 419L133 420L132 419M317 419L318 420L317 419z"/>
<path style="fill:#83a76f; stroke:none;" d="M135 421L136 422L135 421M314 421L315 422L314 421z"/>
<path style="fill:#f7dd8f; stroke:none;" d="M136 422L137 423L136 422M313 422L314 423L313 422z"/>
<path style="fill:#83a76f; stroke:none;" d="M138 423L139 424L138 423z"/>
<path style="fill:#f7dd8f; stroke:none;" d="M139 424L140 425L139 424M310 424L311 425L310 424M142 426L143 427L142 426M307 426L308 427L307 426z"/>
<path style="fill:#83a76f; stroke:none;" d="M144 427L145 428L144 427M305 427L306 428L305 427z"/>
<path style="fill:#f7dd8f; stroke:none;" d="M145 428L146 429L145 428M304 428L305 429L304 428M147 429L148 430L147 429z"/>
<path style="fill:#83a76f; stroke:none;" d="M302 429L303 430L302 429M149 430L150 431L149 430M300 430L301 431L300 430z"/>
<path style="fill:#f7dd8f; stroke:none;" d="M299 431L300 432L299 431M152 432L153 433L152 432M297 432L298 433L297 432M154 433L155 434L154 433M295 433L296 434L295 433M156 434L157 435L156 434M293 434L294 435L293 434M158 435L159 436L158 435M291 435L292 436L291 435z"/>
<path style="fill:#83a76f; stroke:none;" d="M161 436L162 437L161 436M288 436L289 437L288 436z"/>
<path style="fill:#f7dd8f; stroke:none;" d="M163 437L164 438L163 437M286 437L287 438L286 437z"/>
<path style="fill:#83a76f; stroke:none;" d="M166 438L167 439L166 438M283 438L284 439L283 438z"/>
<path style="fill:#f7dd8f; stroke:none;" d="M284 438L285 439L284 438M168 439L169 440L168 439M281 439L282 440L281 439z"/>
<path style="fill:#83a76f; stroke:none;" d="M171 440L172 441L171 440M278 440L279 441L278 440z"/>
<path style="fill:#f7dd8f; stroke:none;" d="M279 440L280 441L279 440M173 441L174 442L173 441z"/>
<path style="fill:#83a76f; stroke:none;" d="M174 441L175 442L174 441M275 441L276 442L275 441z"/>
<path style="fill:#f7dd8f; stroke:none;" d="M276 441L277 442L276 441M176 442L177 443L176 442z"/>
<path style="fill:#83a76f; stroke:none;" d="M177 442L178 443L177 442M272 442L273 443L272 442z"/>
<path style="fill:#f7dd8f; stroke:none;" d="M273 442L274 443L273 442M179 443L180 444L179 443z"/>
<path style="fill:#83a76f; stroke:none;" d="M180 443L181 444L180 443M269 443L270 444L269 443z"/>
<path style="fill:#f7dd8f; stroke:none;" d="M270 443L271 444L270 443M183 444L184 445L183 444z"/>
<path style="fill:#83a76f; stroke:none;" d="M184 444L185 445L184 444M265 444L266 445L265 444z"/>
<path style="fill:#f7dd8f; stroke:none;" d="M266 444L267 445L266 444M186 445L187 446L186 445z"/>
<path style="fill:#83a76f; stroke:none;" d="M187 445L188 446L187 445M262 445L263 446L262 445z"/>
<path style="fill:#f7dd8f; stroke:none;" d="M263 445L264 446L263 445M190.667 446.333L191.333 446.667L190.667 446.333z"/>
<path style="fill:#83a76f; stroke:none;" d="M192 446L193 447L192 446M257 446L258 447L257 446z"/>
<path style="fill:#f7dd8f; stroke:none;" d="M258.667 446.333L259.333 446.667L258.667 446.333M196 447L197 448L196 447z"/>
<path style="fill:#83a76f; stroke:none;" d="M197.667 447.333L198.333 447.667L197.667 447.333M251.667 447.333L252.333 447.667L251.667 447.333z"/>
<path style="fill:#f7dd8f; stroke:none;" d="M253 447L254 448L253 447M201.667 448.333L202.333 448.667L201.667 448.333z"/>
<path style="fill:#83a76f; stroke:none;" d="M203.667 448.333L204.333 448.667L203.667 448.333M245.667 448.333L246.333 448.667L245.667 448.333z"/>
<path style="fill:#f7dd8f; stroke:none;" d="M247.667 448.333L248.333 448.667L247.667 448.333M209 449L209 450L212 450L209 449z"/>
<path style="fill:#83a76f; stroke:none;" d="M212 449L212 450L216 450L212 449M234 449L234 450L238 450L234 449z"/>
<path style="fill:#f7dd8f; stroke:none;" d="M238 449L238 450L241 450L238 449z"/>
</svg>
